<svg id="AXLE" xmlns="http://www.w3.org/2000/svg" width="684.771" height="98.829" viewBox="0 0 684.771 98.829">
  <path id="AXLE-2" data-name="AXLE" d="M1066.962,564.648l-15.783-.377-9.4-14.2-47.135,12.848-42.5-2.48-4.154,8.749-28.351,5.965-43.372,4.126a64.26,64.26,0,0,1-16.995,3.12c-10.512.672-19.847,1.658-31.693,1.906s-29.643-1.9-32.251-.506-14.808,1.333-19.183-.3-16.508-1.5-21.425-2.74-8.055.829-11.5.716-9.762-.095-10.6-.167-13.167-5.7-13.167-5.7-8.6-1.583-10.58-1.673-17.253,1.236-17.253,1.236-14.043,4.539-23.93,4.222-41.528-.652-41.528-.652,3.573,4.026-4.9,2.327-9.308-3.6-11.9-1.694-6.951,2.215-9.281,2.487-23.2-16.685-23.2-16.685l-2.2-14.159c-8.724,18.944-26.3,3.792-49.241,14.254-10.38,4.734-47.841-7.777-60.7-6.662-2.419.21-.456,12.018-9.016,11.352s-4.34,1.938-19.1-4.482l-14.586-3.106-26-.408-3.968-2.063-5.014-7.815.473-30.155,94.854-35.972,62.2.976s22.837-4.049,31.494,13.968,18.439,59.367,18.186,61.767,311.875-.175,311.875-.175,16.982-69.93,62.513-69.384,59.322,1.98,66.863,5.49,20.257,20.119,22.185,25.446,2.825,7.32,5.274,12.87,4.958,18.894,8.07,20.791S1066.962,564.648,1066.962,564.648Zm-85.8-18.945,4.868,4.453-16.907-16.645-10.448,11.061Zm-7.933-12.127,10.213,7.1.045-2.866L989,537.9l-.209-10.527Zm33.013,5.076,10.562,6.008,22.5-5.976-32.935-8.223Zm-534.227,6.7,27.382,3.678,6.934-18.712-17.047.4-3.895,7.2-10.162-.159Zm52.011-22.462,7.855,21.55,29.139,1.668Z" transform="translate(-387.058 -485.962)" fill="#211f1e"/>
</svg>
