<svg id="BODY" xmlns="http://www.w3.org/2000/svg" xmlns:xlink="http://www.w3.org/1999/xlink" width="802.489" height="193.243" viewBox="0 0 802.489 193.243">
  <defs>
    <linearGradient id="linear-gradient" x1="0.515" y1="0.751" x2="0.515" y2="1.716" gradientUnits="objectBoundingBox">
      <stop offset="0" stop-color="#1a1a1a"/>
      <stop offset="0.322" stop-color="#b3b3b3"/>
      <stop offset="0.471" stop-color="gray"/>
      <stop offset="0.561" stop-color="#ccc"/>
      <stop offset="0.65" stop-color="#ccc"/>
      <stop offset="0.993" stop-color="#666"/>
    </linearGradient>
    <linearGradient id="linear-gradient-2" x1="0.517" y1="1.371" x2="0.517" y2="0.406" xlink:href="#linear-gradient"/>
    <linearGradient id="linear-gradient-3" x1="0.915" y1="1.335" x2="0.151" y2="0.096" gradientUnits="objectBoundingBox">
      <stop offset="0" stop-color="#1a1a1a"/>
      <stop offset="0.473" stop-color="#b3b3b3"/>
    </linearGradient>
    <linearGradient id="linear-gradient-4" x1="0.517" y1="0.549" x2="0.517" y2="1.544" gradientUnits="objectBoundingBox">
      <stop offset="0" stop-color="#1a1a1a"/>
      <stop offset="0.65" stop-color="#ccc"/>
      <stop offset="0.994" stop-color="#1a1a1a"/>
    </linearGradient>
    <linearGradient id="linear-gradient-5" x1="0.495" y1="1.001" x2="0.495" gradientUnits="objectBoundingBox">
      <stop offset="0" stop-opacity="0.698"/>
      <stop offset="0.004" stop-color="#030404" stop-opacity="0.698"/>
      <stop offset="0.069" stop-color="#304f4f" stop-opacity="0.643"/>
      <stop offset="0.133" stop-color="#548a8a" stop-opacity="0.6"/>
      <stop offset="0.194" stop-color="#6eb4b4" stop-opacity="0.569"/>
      <stop offset="0.252" stop-color="#7dcdcd" stop-opacity="0.549"/>
      <stop offset="0.303" stop-color="#83d6d6" stop-opacity="0.545"/>
      <stop offset="0.711" stop-color="#fff" stop-opacity="0.6"/>
      <stop offset="0.95" stop-color="#6cc" stop-opacity="0.404"/>
    </linearGradient>
    <linearGradient id="linear-gradient-6" x1="0.073" y1="0.141" x2="0.879" y2="1.05" xlink:href="#linear-gradient-5"/>
    <linearGradient id="linear-gradient-7" x1="0.504" y1="1.187" x2="0.502" y2="0.112" gradientUnits="objectBoundingBox">
      <stop offset="0.03" stop-color="#ccc" stop-opacity="0"/>
      <stop offset="0.307" stop-color="#404040" stop-opacity="0"/>
      <stop offset="0.308" stop-color="#3f3f3f" stop-opacity="0"/>
      <stop offset="0.676" stop-color="#252525" stop-opacity="0.553"/>
      <stop offset="0.995" stop-color="#1a1a1a" stop-opacity="0.8"/>
    </linearGradient>
    <linearGradient id="linear-gradient-8" x1="0.501" y1="1.104" x2="0.5" y2="0.031" gradientUnits="objectBoundingBox">
      <stop offset="0.399" stop-color="#ccc" stop-opacity="0"/>
      <stop offset="0.89" stop-color="#404040" stop-opacity="0"/>
      <stop offset="0.892" stop-color="#3f3f3f" stop-opacity="0"/>
      <stop offset="0.999" stop-color="#1a1a1a" stop-opacity="0.51"/>
    </linearGradient>
    <linearGradient id="linear-gradient-9" x1="0.466" y1="-1.315" x2="0.5" y2="1.306" gradientUnits="objectBoundingBox">
      <stop offset="0" stop-color="#fff"/>
      <stop offset="0.567" stop-color="#f2f2f2" stop-opacity="0"/>
      <stop offset="0.94" stop-color="#f2f2f2"/>
      <stop offset="0.992" stop-color="#fff"/>
    </linearGradient>
    <linearGradient id="linear-gradient-10" x1="0.438" y1="0.16" x2="0.695" y2="1.31" gradientUnits="objectBoundingBox">
      <stop offset="0" stop-color="#fff" stop-opacity="0"/>
      <stop offset="0.884" stop-opacity="0.302"/>
    </linearGradient>
    <radialGradient id="radial-gradient" cx="0.614" cy="-0.452" r="2.506" gradientUnits="objectBoundingBox">
      <stop offset="0.314" stop-color="#cfcfcf" stop-opacity="0.831"/>
      <stop offset="0.807" stop-color="#fff" stop-opacity="0"/>
    </radialGradient>
    <linearGradient id="linear-gradient-11" x1="0.003" y1="0.664" x2="1.003" y2="0.664" gradientUnits="objectBoundingBox">
      <stop offset="0" stop-color="#333" stop-opacity="0.2"/>
      <stop offset="0.289" stop-color="#f7f7f7" stop-opacity="0.439"/>
      <stop offset="0.731" stop-color="#f2f2f2"/>
      <stop offset="0.887" stop-color="#f5f5f5" stop-opacity="0.404"/>
      <stop offset="0.999" stop-color="#fff" stop-opacity="0"/>
    </linearGradient>
    <linearGradient id="linear-gradient-12" x1="0.496" y1="-0.167" x2="0.496" y2="0.656" gradientUnits="objectBoundingBox">
      <stop offset="0" stop-color="#f2f2f2" stop-opacity="0"/>
      <stop offset="0.41" stop-color="#f3f3f3" stop-opacity="0"/>
      <stop offset="0.992" stop-color="#fff"/>
    </linearGradient>
    <linearGradient id="linear-gradient-13" x1="0.479" y1="-1.284" x2="0.479" y2="1.327" gradientUnits="objectBoundingBox">
      <stop offset="0" stop-color="#1c3223"/>
      <stop offset="0.992" stop-color="gray"/>
    </linearGradient>
    <linearGradient id="linear-gradient-14" x1="-119.926" y1="-564.59" x2="38.781" y2="270.037" gradientUnits="objectBoundingBox">
      <stop offset="0" stop-color="#1c3223"/>
      <stop offset="0.567" stop-color="#f2f2f2" stop-opacity="0"/>
      <stop offset="0.94" stop-color="#f2f2f2"/>
      <stop offset="0.992" stop-color="#fff"/>
    </linearGradient>
    <linearGradient id="linear-gradient-15" x1="-104.426" y1="-495.264" x2="33.732" y2="235.595" xlink:href="#linear-gradient-14"/>
    <linearGradient id="linear-gradient-16" x1="-400.971" y1="-1791.171" x2="128.457" y2="858.154" xlink:href="#linear-gradient-14"/>
    <linearGradient id="linear-gradient-17" x1="-59.445" y1="-278.754" x2="19.939" y2="137.661" xlink:href="#linear-gradient-14"/>
    <linearGradient id="linear-gradient-18" x1="0.251" y1="-3.005" x2="0.615" y2="2.89" xlink:href="#linear-gradient-14"/>
    <linearGradient id="linear-gradient-19" x1="-32.876" y1="-155.847" x2="11.215" y2="76.14" xlink:href="#linear-gradient-14"/>
    <linearGradient id="linear-gradient-20" x1="-144.531" y1="-678.881" x2="47.766" y2="336.738" xlink:href="#linear-gradient-14"/>
    <linearGradient id="linear-gradient-21" x1="0.483" y1="-1.283" x2="0.505" y2="1.304" xlink:href="#linear-gradient-14"/>
    <linearGradient id="linear-gradient-22" x1="0.478" y1="-3.727" x2="0.506" y2="2.312" xlink:href="#linear-gradient-14"/>
    <linearGradient id="linear-gradient-23" x1="0.481" y1="-3.224" x2="0.505" y2="1.867" xlink:href="#linear-gradient-14"/>
    <linearGradient id="linear-gradient-24" x1="0.192" y1="-7.412" x2="0.578" y2="7.114" xlink:href="#linear-gradient-14"/>
    <linearGradient id="linear-gradient-25" x1="0.104" y1="-10.308" x2="0.606" y2="8.568" xlink:href="#linear-gradient-14"/>
    <linearGradient id="linear-gradient-26" x1="1.543" y1="0.501" x2="1.546" y2="0.501" gradientUnits="objectBoundingBox">
      <stop offset="0.027" stop-color="#b3b3b3"/>
      <stop offset="0.374" stop-color="#ccc"/>
      <stop offset="0.76" stop-color="#999"/>
      <stop offset="1" stop-color="#666"/>
    </linearGradient>
    <linearGradient id="linear-gradient-27" x1="-0.124" y1="0.615" x2="0.908" y2="0.615" gradientUnits="objectBoundingBox">
      <stop offset="0" stop-color="#cfc" stop-opacity="0"/>
      <stop offset="0.877" stop-color="#1c4723" stop-opacity="0.6"/>
      <stop offset="1" stop-color="#042b23"/>
    </linearGradient>
    <linearGradient id="linear-gradient-28" x1="-0.135" y1="0.651" x2="0.896" y2="0.651" gradientUnits="objectBoundingBox">
      <stop offset="0" stop-color="#ccc" stop-opacity="0"/>
      <stop offset="0.877" stop-color="#1c4723" stop-opacity="0.6"/>
      <stop offset="1" stop-color="#042b23"/>
    </linearGradient>
    <linearGradient id="linear-gradient-29" x1="-0.112" y1="0.574" x2="0.923" y2="0.574" xlink:href="#linear-gradient-28"/>
    <linearGradient id="linear-gradient-30" x1="-0.116" y1="0.588" x2="0.917" y2="0.588" xlink:href="#linear-gradient-28"/>
    <linearGradient id="linear-gradient-31" x1="-0.114" y1="0.58" x2="0.92" y2="0.58" xlink:href="#linear-gradient-28"/>
    <linearGradient id="linear-gradient-32" x1="-0.103" y1="0.562" x2="0.928" y2="0.562" xlink:href="#linear-gradient-28"/>
    <linearGradient id="linear-gradient-33" x1="-0.121" y1="0.605" x2="0.911" y2="0.605" xlink:href="#linear-gradient-28"/>
    <linearGradient id="linear-gradient-34" x1="-0.131" y1="0.638" x2="0.9" y2="0.638" xlink:href="#linear-gradient-28"/>
    <linearGradient id="linear-gradient-35" x1="-0.128" y1="0.625" x2="0.904" y2="0.625" xlink:href="#linear-gradient-28"/>
    <linearGradient id="linear-gradient-36" x1="-0.119" y1="0.596" x2="0.914" y2="0.596" xlink:href="#linear-gradient-28"/>
    <linearGradient id="linear-gradient-37" x1="-0.11" y1="0.567" x2="0.925" y2="0.567" xlink:href="#linear-gradient-28"/>
    <linearGradient id="linear-gradient-38" x1="-0.021" y1="0.609" x2="0.979" y2="0.609" gradientUnits="objectBoundingBox">
      <stop offset="0.001" stop-color="gray"/>
      <stop offset="0.24" stop-color="#eaeaea"/>
      <stop offset="0.727" stop-color="#ccc"/>
      <stop offset="1" stop-color="#999"/>
    </linearGradient>
    <linearGradient id="linear-gradient-39" x1="-0.037" y1="0.87" x2="0.877" y2="0.463" gradientUnits="objectBoundingBox">
      <stop offset="0" stop-color="#666"/>
      <stop offset="1" stop-color="#ccc"/>
    </linearGradient>
    <linearGradient id="linear-gradient-40" x1="0.002" y1="0.544" x2="1.002" y2="0.544" gradientUnits="objectBoundingBox">
      <stop offset="0" stop-color="gray"/>
      <stop offset="0.027" stop-color="#858585"/>
      <stop offset="0.22" stop-color="#a6a6a6"/>
      <stop offset="0.325" stop-color="#b3b3b3"/>
      <stop offset="0.659" stop-color="#ccc"/>
      <stop offset="0.804" stop-color="#a4a4a4"/>
      <stop offset="0.927" stop-color="#898989"/>
      <stop offset="0.999" stop-color="gray"/>
      <stop offset="1" stop-color="#ccc"/>
    </linearGradient>
  </defs>
  <g id="Background" transform="translate(-315.89 -376.872)">
    <path id="Path_14" data-name="Path 14" d="M622.445,410.5s2.773-3.99,6.425-4.312c5.652-.5,62.192-1.1,72.909.315a121.311,121.311,0,0,1,20.256,4.621l13.471,42.656,6.185.1-10.416-31.686,33.39,32.047L847.6,453.4l2.238-5.139-2.418-1.955-1.4,1.7-67.93-4.557-40.14-32.833s-2.285-4.973.988-6.65a32.644,32.644,0,0,1,10.678-3.469c5.016-.922,13.631,3.244,13.631,3.244s-1.874,1.116-1.839,4.529,6.229,4.987,6.124,4.748,9.279-7.739,9.279-7.739l-13.118-9.562s-37-6.862-74.5-3.81-57.912,4.459-57.912,4.459S615.064,402.622,622.445,410.5Z" fill="#423125"/>
    <path id="Path_15" data-name="Path 15" d="M337.806,544.551l9,.3,35.351,1.164,6,8.392-46.495-.73s-3.006.362-4.428-4.631C336.058,544.906,337.806,544.551,337.806,544.551Z" fill="url(#linear-gradient)"/>
    <path id="Path_16" data-name="Path 16" d="M341.727,549.613l44.347,1.46,6.005,8.392-46.495-.73s-3.006.362-4.428-4.631C339.979,549.968,341.727,549.613,341.727,549.613Z" fill="url(#linear-gradient-2)"/>
    <path id="Path_17" data-name="Path 17" d="M316.748,509.9l7.944,9.941,10.967,2.172,2.392-24.965-9.983-1.157,5.533-33.918-6-.094-7.783,31.882L317,493.718S314.679,508.053,316.748,509.9Z" fill="url(#linear-gradient-3)"/>
    <path id="Path_18" data-name="Path 18" d="M318.019,509.921s5.7,3.274,9.767,3.969c2.992.511,5.1-1.948,5.114-2.948s3.738-11.868,3.738-11.868l-2.931,19.909-8.99-.713Z" fill="#666"/>
    <path id="Path_19" data-name="Path 19" d="M755.826,439.183l3.287,12.851-28.042-.168L749.742,436Zm-2.832,1.958-4.9,5.88,4.765,2.569Z" fill="#423125"/>
    <path id="Path_20" data-name="Path 20" d="M349.727,546.751a32.867,32.867,0,0,0-2.925-1.9l9.99.5s7.512,4.878,10.442,5.267,21.62.236,21.62.236l4.505,8.641-40.331-.642a.092.092,0,0,1-.018-.183c2.114-.416,7.009-1.653,7.244-4.23.3-3.291-6.557-4.55-8.958-4.675a69.373,69.373,0,0,0-8.569-.117C339.985,550.068,350.506,547.315,349.727,546.751Z" opacity="0.7" fill="url(#linear-gradient-4)" style="mix-blend-mode: multiply;isolation: isolate"/>
  </g>
  <g id="Windows" transform="translate(-315.89 -376.872)">
    <path id="Path_21" data-name="Path 21" d="M718.286,389.5c-9-.141-77.069,3.791-90.13,7.586s-10.187,11.842-10.187,11.842l16.276,46.261,206.006,1.233c2.078-4.968-65.129-56.029-68.1-58.076s-10.889-7.172-16.888-7.266-27.981-1.439-36.98-1.58Z" opacity="0.6" fill="url(#linear-gradient-5)"/>
    <path id="Path_22" data-name="Path 22" d="M431.139,428.5c-1.539,2.476,3.46,2.555,3.46,2.555a34.638,34.638,0,0,0,10.022-1.343c3.016-.953,52.614-14.6,65.791-17.97,22.091-5.654,67.535-14,69.734-14.407,2.508-.461,4.523-1.429,2.539-2.461l-9.92-5.156s-43.105,6.324-70.227,13.9S432.678,426.025,431.139,428.5Z" opacity="0.6" fill="url(#linear-gradient-6)"/>
    <path id="Path_23" data-name="Path 23" d="M431.631,429.009a3.729,3.729,0,0,0,2.968,2.047,34.638,34.638,0,0,0,10.022-1.343c3.016-.953,52.729-14.174,65.791-17.97s63.513-13.105,65.719-13.47c11.03-1.827,9.062-3.858,7.078-4.89s-6.952-3.109-8.936-4.14" fill="none" stroke="#ccc" stroke-linecap="square" stroke-width="3"/>
    <path id="Path_24" data-name="Path 24" d="M329.152,522.412s10.46,2.664,10.491.665,2.408-25.966,2.408-25.966l-11.966-2.288s2.187-11.867,4.249-15.835.251-18,.251-18l-3.968-.063,2.063-3.968" fill="none" stroke="#1c4723" stroke-width="1"/>
    <path id="Path_25" data-name="Path 25" d="M849.995,454.932l-5.552-.087-.409-.346-73.712-62.42.542-1.059a22.838,22.838,0,0,0,1.924-4.647s.713-.363.734-.259l2.079,1.075c.072.348.423.091-1.534,4.131l71.5,60.542,2.448.039,1.686-4.031,2.768,1.157Z" fill="#ccc"/>
    <path id="Path_26" data-name="Path 26" d="M774.552,387.386l76.315,61.705s1.922,5.031-6.062,3.9-75.033-62.185-75.033-62.185l4.78-3.425" fill="#6cc" opacity="0.6"/>
  </g>
  <g id="main_body" data-name="main body" transform="translate(-315.89 -376.872)">
    <path id="Path_27" data-name="Path 27" d="M613.572,381.358c31.222-3.01,93.935-6.026,120.9-3.6s39.885,7.627,40.095,8.631-2.075,5.468-2.075,5.468l72.8,61.65,4,.063,2.078-4.968,2.534.083c.2.007.6,1.128.818,1.135.188.007,1.019-1.11,1.222-1.1,5.863.2,17.09.622,30.422,1.151,1.153.046.983.356,1.278.366a10.016,10.016,0,0,0,1.414-.025c.441-.015.364-.226.807-.21,24,.863,52.128,1.864,57.462,2.109,82.45,3.795,139.287,14.688,155.222,18.939s15.825,11.249,15.825,11.249l-13.045,2.8s-11.533,33.823-11.58,36.823,7.874,8.124,8.874,8.14-8.188,11.873-8.188,11.873-11.187,11.826-13.233,14.794-9.031,1.859-13.03,1.8-4.968-2.078-6.921-5.109-1.811-12.03-2.717-18.045-6.732-17.108-15.621-24.248c-3.487-2.8-12.858-9.2-40.823-11.643s-42.23,14.339-53.386,24.166-20.515,32.682-20.515,32.682L587.75,551.89l.47.091s-.827-11.014-10.543-29.169c-13.111-24.5-33.541-29.53-84.582-27.33s-49.077,68.238-49.077,68.238-9.983-1.157-24.9-6.392-22.64-6.356-22.64-6.356-29.275.541-31.259-.491-8.424-5.132-8.424-5.132l-6.495-.1c-2-.032-9.889-7.156-12.826-11.2s-12.779-14.2-12.779-14.2,5.846,1.309,8.983,1.141c2.2-.118,2.026-1.629,2.031-1.969.025-1.594,1.489-13.874,2.1-19.6a2.4,2.4,0,0,0-2.113-2.636l-7.62-.883s1.189-11.983,2.283-17.967,2.188-11.967,2.219-13.967-2.968-2.046-2.968-2.046l3.094-5.953,10.108-6.842s7.221-.452,7.5-.481a.6.6,0,0,1,.479.25l1.02.1a.48.48,0,0,1,.449-.473l15.584-1s43.314-14.8,44.141-15.141a1.951,1.951,0,0,1,1.724.392l.906-.522s-.582-.573.319-.882l12.989-4.455a1.893,1.893,0,0,1,2.077.6c1.015,1.2,2.777,3.027,4.118,3.048,2.984,1.047,9.015-.859,12.03-1.812s51.229-14.2,64.29-17.993,70.227-13.9,72.242-14.868,1.032-1.984-.952-3.015-8.936-4.141-8.936-4.141c-.493-.508,1.539-2.476,4.046-2.937S582.35,384.369,613.572,381.358Zm158.6,15.991c-2.892-2.154-13.115-6.683-16.888-7.266-5.93-.915-27.981-1.439-36.98-1.58s-77.069,3.791-90.13,7.586-10.187,11.842-10.187,11.842l16.276,46.261,206.006,1.233C838.942,455.4,775.986,400.193,772.17,397.349Z" fill="rgba(141,57,108,0.93)"/>
    <path id="Path_28" data-name="Path 28" d="M415.889,444.264l-34.027,1.466,30.69-11.02s-4.317,3.933-.974,5.736,116.376.576,116.376.576Z" fill="#333" opacity="0.5"/>
  </g>
  <g id="shadow_shapes" data-name="shadow shapes" transform="translate(-315.89 -376.872)">
    <path id="Path_29" data-name="Path 29" d="M768.543,532.809c-1.984-1.031-173.025.285-173.025.285-8.015.874-16.81-12.266-10.983-1.173a49.788,49.788,0,0,1,5.716,18.092l16,.251,26,.408c16.029.252,120.189-11.115,127.22-13.005S768.543,532.809,768.543,532.809Z" opacity="0.7" fill="url(#linear-gradient-7)"/>
    <path id="Path_30" data-name="Path 30" d="M1102.3,487.042c-1.984-1.032-488.191-1.737-488.191-1.737-7.046,2.89-8.125,7.874-7.172,10.889s7.764,25.2,7.764,25.2-.11,7,9.779,4.08c1.918-.566-13.544-29.216-3.545-29.059,16.029.251,480.318-6.388,480.318-6.388Z" fill="url(#linear-gradient-8)" style="mix-blend-mode: multiply;isolation: isolate"/>
    <path id="Path_31" data-name="Path 31" d="M623.268,485.523s-6.984-1.109-10-.157c-11.12,3.514-5.219,13.92-4.267,16.936s7.676,23.348,8.133,24.743,1.108,3.97,2.3,1.706-7.489-25.582-9.322-33.433C608.238,487.288,618.252,486.445,623.268,485.523Z" fill="#666" style="mix-blend-mode: multiply;isolation: isolate"/>
    <path id="Path_32" data-name="Path 32" d="M445.614,525.74a19.758,19.758,0,0,1-13.108,6.795c-8.467.756-54.732-3.072-64.945-4.019-12.982-1.2-16.966-2.267-17.841-10.282-.65-5.964-1.733-17.029-1.67-21.029l.079-5s-2-.031-4.063,3.937c-1.031,1.984-3.439,27.949-3.439,27.949s3.308,10.526,7.764,15.124c3.937,4.062,2.508,3.309,8.952,3.141s6.936,4.109,10.92,5.172,33.074-4.482,65.339,10.069C440.96,560.917,445.614,525.74,445.614,525.74Z" opacity="0.3" style="mix-blend-mode: multiply;isolation: isolate"/>
    <path id="Path_33" data-name="Path 33" d="M1067.773,520.5s2.482,2.03,13.077-4.8c6.062-3.9,18.129-18.564,19.374-23.7s-8.759,29.273-9.161,32.563,6.7,6.556,6.7,6.556-12.166,16.564-19.366,21.5-10.367-.163-10.367-.163a31.494,31.494,0,0,1-5.908-17.494C1061.829,523.472,1059.9,518.38,1067.773,520.5Z" fill="#1a1a1a" opacity="0.3" style="mix-blend-mode: multiply;isolation: isolate"/>
    <path id="Path_34" data-name="Path 34" d="M631.463,452.148s-12.795-2.263-21.582-5.84c-17.888-7.281-40.131-5.647-51.915-5.815-7.215-.1-74.423.467-78.849-10.239s34.955-16.182,34.955-16.182,56.535-14.386,70.534-14.166c7,.11,3.518-5.206,5.078-4.921,17.951,3.282,37,.581,37,.581s-14.093,5.381-12.187,11.611S631.463,452.148,631.463,452.148Z" opacity="0.8" fill="url(#linear-gradient-9)"/>
    <path id="Path_35" data-name="Path 35" d="M913.794,553.668l-128.238-1.631s65.885-4.309,89.566-20,46.808-19.833,54.011-19.41c2.52.148,10.94.274,12.667.8,3.21.976,2.792,3.776-.131,6.285-10.385,8.917-15.872,24.6-16.855,27.751C922.386,555.226,913.794,553.668,913.794,553.668Z" opacity="0.7" fill="url(#linear-gradient-10)"/>
  </g>
  <g id="highlight_shape" data-name="highlight shape" transform="translate(-315.89 -376.872)">
    <path id="Path_36" data-name="Path 36" d="M971.193,492.985s.922,5.015-8.156,9.873-31.42,26.51-27.4,25.573c7.014-.89,28.467-29.557,60.494-31.054,17.014-.734,24.982,1.392,35.917,5.564s36.666,21.578,24.84,10.391c-6.249-5.912-41.728-17.657-6.653-22.107C1056.265,490.459,971.193,492.985,971.193,492.985Z" opacity="0.6" fill="url(#radial-gradient)"/>
    <path id="Path_37" data-name="Path 37" d="M629.529,532.627l116.033-1.179s32.017-.606-19.951-3.313c-109.923-5.726-99.972-2.569-99.972-2.569s-3-.048-3.062,3.952S629.529,532.627,629.529,532.627Z" opacity="0.7" fill="url(#linear-gradient-11)"/>
    <path id="Path_38" data-name="Path 38" d="M891.854,450.234s84.951,3.834,126.883,8.493,58.883,7.925,58.883,7.925L898.848,457.1Z" opacity="0.7" fill="url(#linear-gradient-12)"/>
    <path id="Path_39" data-name="Path 39" d="M950.169,430.647" fill="#fff"/>
    <path id="Path_40" data-name="Path 40" d="M676.094,466.337s-1.4,4.729-4.382,4.682-17.1-.71-19.7-.751-4.462-4.827-4.922-6.166,4.048.064,4.048.064,1.188,3.91,2.784,3.984,15.845.187,15.845.187,2.426.318,3.107-.861a21.734,21.734,0,0,0,1.381-3.539l2.371-.7Z" opacity="0.3" fill="url(#linear-gradient-13)"/>
    <path id="Path_41" data-name="Path 41" d="M334.065,480.464l-.04.219Z" opacity="0.8" fill="url(#linear-gradient-14)"/>
    <path id="Path_42" data-name="Path 42" d="M334.025,480.683c-.053.287-.069.377,0,0Z" opacity="0.8" fill="url(#linear-gradient-15)"/>
    <path id="Path_43" data-name="Path 43" d="M334.077,480.395l-.012.069Z" opacity="0.8" fill="url(#linear-gradient-16)"/>
    <path id="Path_44" data-name="Path 44" d="M334.3,479.168l-.08.439Z" opacity="0.8" fill="url(#linear-gradient-17)"/>
    <path id="Path_45" data-name="Path 45" d="M342.789,450.117l-10.109,6.842-2.063,3.968,3.968.063s.844,12.014-.251,18l10.6,1.8c.918-5.88,2.207-20.237,3.109-31.01Z" opacity="0.8" fill="url(#linear-gradient-18)"/>
    <path id="Path_46" data-name="Path 46" d="M334.221,479.607c-.061.335-.107.589-.144.788Z" opacity="0.8" fill="url(#linear-gradient-19)"/>
    <path id="Path_47" data-name="Path 47" d="M334.334,478.988l-.033.18Z" opacity="0.8" fill="url(#linear-gradient-20)"/>
    <path id="Path_48" data-name="Path 48" d="M642.158,481.658c.176-.66-2.265-3.515-2.592-3.81s-.581-5.2-.581-5.2-1.42-6.006-1.409-6.71a19.722,19.722,0,0,0-2.839-7.682,15.844,15.844,0,0,0-2.827-3.192c-13.178-1.367-33.145-12.934-48.963-13.182-30.533-.479-215.13,6.625-215.13,6.625l-14.338.921L349.5,482.312s.563,1.681-.533,2.249c.381,3.171.237,7.367,5.181,6.739,7.015-.89,16.27-.155,18.5-.209,12.507-.3,101.527-.907,101.527-.907s-10.062,3.843-16.171,10.748c-10.286,11.626-7.26,15.9,4.937,4.078,2.031-1.969,10.187-11.842,47.706-12.753a219.842,219.842,0,0,1,22.985.688c20.978,2,39.42,18.14,41.709,19.329,3.968,2.063,3.125-7.951-7.764-15.123-7.47-4.92-26.976-10.425,6.156-9.9,15,.236,22.013-.654,32.012-.5,3.162.049,4.145-3.029,7.046-2.89,3.822.183,11.665.326,26.837.483C642.124,484.343,641.982,482.318,642.158,481.658Z" opacity="0.7" fill="url(#linear-gradient-21)"/>
    <path id="Path_49" data-name="Path 49" d="M859.029,477.826s-4.665-12.557-6.242-14.7c-1.082-1.473-6.591-3.809-9.945-5.131a1.247,1.247,0,0,0-1.193.144l-.088.064a1.253,1.253,0,0,1-.751.234c-18.38-.29-171.113-2.786-201.031-3.182a1.261,1.261,0,0,0-.916,2.141l.019.019a4.987,4.987,0,0,1,1.019,3.89c-.117,1.717,1.846,4.275,2,5.318s1.732,5.781,1.866,7.772a7.28,7.28,0,0,0,1.42,4.567,9.98,9.98,0,0,1,1.137,3.518,3.315,3.315,0,0,0,2,1.952c46.532.435,207.737.669,210.873.719s1.771-1.993,1.771-1.993Z" opacity="0.6" fill="url(#linear-gradient-22)"/>
    <path id="Path_50" data-name="Path 50" d="M1097.554,470.965c-12.477-2.832-178.35-9.307-197.973-10.065a5.069,5.069,0,0,1-3.279-1.374l-9.455-8.87c-3.93-.2-27.732-.462-32.254-.51-.46-.005-1.945.268-2.157.676l-.923,3.426-5.724-.236a5.888,5.888,0,0,1-.373,1.379,22.482,22.482,0,0,0,4.285,1.751,14.948,14.948,0,0,1,7,4.9c2.529,2.972,7.03,16.382,8.432,19.857.819,2.029,3.526,3.038,3.526,3.038,113.275.334,221.419,1.032,232.713,1.1a1.194,1.194,0,0,0,1.132-.772c.286-.76.985.023,2.845-1.175,3.031-1.953,10.046-2.843,10.046-2.843S1116.489,475.263,1097.554,470.965Z" opacity="0.5" fill="url(#linear-gradient-23)"/>
    <path id="Path_51" data-name="Path 51" d="M634.745,455.2c.176,0,.918,0,2.161.016a.66.66,0,0,1-.126-.488c.177-.52-8.52-6.131-8.52-6.131l2.4,5.538s.553.382,1.252.932A22.741,22.741,0,0,0,634.745,455.2Z" fill="url(#linear-gradient-24)"/>
    <path id="Path_52" data-name="Path 52" d="M845.514,454.444,843,453.623l-3.615-.58.837,3.95s.787.286,1.965.743A15.563,15.563,0,0,0,845.514,454.444Z" fill="url(#linear-gradient-25)"/>
    <path id="Path_53" data-name="Path 53" d="M696.806,494.613" fill="#fff"/>
  </g>
  <g id="body_details" data-name="body details" transform="translate(-315.89 -376.872)">
    <path id="Path_54" data-name="Path 54" d="M772.17,397.349c-2.969-2.046-10.889-7.171-16.888-7.266s-27.981-1.439-36.98-1.58-77.069,3.791-90.13,7.586-10.187,11.842-10.187,11.842l16.276,46.261,206.006,1.233C834.845,451.162,775.138,399.4,772.17,397.349Zm-150.419,9.236a3.523,3.523,0,0,1,.369-2.195c.92-1.8,3.466-3.384,7.168-4.46,12.17-3.536,78.758-7.588,88.951-7.428,4.886.077,13.817.522,21.7.914,6.717.335,12.518.624,15.283.667a18.569,18.569,0,0,1,6.907,2.034l27.857,55.007L637.1,450.209ZM794.48,451.151,768.4,399.65c.5.324,1,.644,1.5.992,1.212.836,16.921,12.7,33.235,25.781,16.676,13.371,25.025,20.84,29.2,24.955Z" fill="url(#linear-gradient-26)"/>
    <path id="Path_55" data-name="Path 55" d="M856.33,555.529l-.983-.176c.069-.392,6.986-39.258,8.134-49.554a39.039,39.039,0,0,0-.388-13.091,22.627,22.627,0,0,1-.355-3.426,4.765,4.765,0,0,1,1.206-3.521c-.826-2.189-6.7-19.721-8.692-22.286-4.262-5.483-14.923-8.029-14.985-8.05l1.225-.626c.268.091,10.1,2.334,14.549,8.061,2.235,2.875,8.463,21.562,8.728,22.271l.217.675-1.2,2.06s-.006-1.268-.048,1.432a22.137,22.137,0,0,0,.344,3.264,39.909,39.909,0,0,1,.393,13.348C863.323,516.239,856.4,555.137,856.33,555.529Z" fill="#333"/>
    <path id="Path_56" data-name="Path 56" d="M545.409,416.3l7.571,22.112,3.234.051-7.9-22.679Z" fill="url(#linear-gradient-27)"/>
    <path id="Path_57" data-name="Path 57" d="M527.161,419.547c-.011,0-.02.007-.031.009l6.352,18.552,3.233.051-6.663-19.126Z" fill="url(#linear-gradient-28)"/>
    <path id="Path_58" data-name="Path 58" d="M575.875,410.886l9.6,28.038,3.234.051-9.964-28.6Z" fill="url(#linear-gradient-29)"/>
    <path id="Path_59" data-name="Path 59" d="M563.689,413.053l8.788,25.668,3.234.051-9.139-26.231Z" fill="url(#linear-gradient-30)"/>
    <path id="Path_60" data-name="Path 60" d="M569.782,411.969l9.194,26.853,3.234.051-9.551-27.415Z" fill="url(#linear-gradient-31)"/>
    <path id="Path_61" data-name="Path 61" d="M602.222,436.316,592.587,409.7a2.119,2.119,0,0,0-2.363-1.365l-2.162.384,10.412,30.41,1.723.027A2.119,2.119,0,0,0,602.222,436.316Z" fill="url(#linear-gradient-32)"/>
    <path id="Path_62" data-name="Path 62" d="M551.5,415.219l7.977,23.3,3.234.051L554.4,414.7Z" fill="url(#linear-gradient-33)"/>
    <path id="Path_63" data-name="Path 63" d="M533.222,418.47l6.759,19.741,3.234.051-7.076-20.31Z" fill="url(#linear-gradient-34)"/>
    <path id="Path_64" data-name="Path 64" d="M539.315,417.386l7.165,20.926,3.234.051-7.489-21.494Z" fill="url(#linear-gradient-35)"/>
    <path id="Path_65" data-name="Path 65" d="M557.6,414.136l8.382,24.482,3.234.051-8.726-25.047Z" fill="url(#linear-gradient-36)"/>
    <path id="Path_66" data-name="Path 66" d="M581.969,409.8l10.006,29.224,3.234.051-10.377-29.784Z" fill="url(#linear-gradient-37)"/>
    <path id="Path_67" data-name="Path 67" d="M421.373,445.35l-1-.016.047-3c.029-1.853-.39-3.241-2.764-5.691-2.42-2.5-3.937-3.864-3.958-3.883l.906-.522c1.087,1.012,1.326,1.188,3.77,3.709a12.331,12.331,0,0,1,3.046,6.4Z"/>
    <path id="Path_68" data-name="Path 68" d="M1096.23,469.519l-198.1-10.192-.13-.111-10.258-8.969,1.321-.041,9.461,8.141,193.131,10.177Z" fill="#333"/>
    <path id="Path_69" data-name="Path 69" d="M650.561,555.908l-1.775-.923c1.379-2.654,2.559-6.074,2.121-6.931-.588-1.149-.382-3.617,0-7.548.241-2.462.571-5.835.207-6.592a90.528,90.528,0,0,1-2.923-9.22l-.024-.116c-.184-1.271-4.523-31.191-4.472-34.444l.1-6.584-2.87-7.054c-.019-.1-1.849-10.053-2.77-14-.847-3.627-4.492-6.485-4.529-6.514l-.233-.18-16.418-46.713a10.216,10.216,0,0,1,.831-5.232c1.092-2.52,3.725-5.907,10.068-7.729,10.8-3.1,72.324-7.909,83.464-7.734,11.407.179,35.442.987,44,1.692,7.676.634,16.991,7.169,17.383,7.447L841.492,454.8l-1.225.626-68.744-56.3c-.038-.024-9.212-6.457-16.339-7.045-8.525-.7-32.491-1.508-43.872-1.687-12.589-.2-72.862,4.779-82.88,7.658-10.048,2.886-9.586,9.774-9.486,10.645l16.149,45.9c.913.764,4.134,3.68,5.013,7.449.892,3.821,2.563,12.862,2.771,13.989l2.928,7.14-.11,6.993c-.038,2.471,2.885,23.328,4.444,34.066a89.522,89.522,0,0,0,2.779,8.816c.565,1.177.37,3.676-.02,7.653-.224,2.293-.564,5.757-.213,6.442C653.806,549.328,651.342,554.4,650.561,555.908Z" fill="#333"/>
    <path id="Path_70" data-name="Path 70" d="M1112.364,483.2l-8.564,35.87a.978.978,0,0,0-1.015.984c-.016,1-3.016.953-4.016.937l-3.667-.057s-2.348.963-1.316-1.021,12.752-33.76,14.142-33.76S1109.365,483.152,1112.364,483.2Z" fill="#999"/>
    <path id="Path_71" data-name="Path 71" d="M1111.364,483.183s-7.03,1.89-8.061,3.874c-.462.888-9.5,31.855-9.517,32.855s3.984,1.063,6.015-.906a11.847,11.847,0,0,0,4.109-6.936c1.063-3.984,4.376-23.934,5.392-24.919S1111.364,483.183,1111.364,483.183Z" fill="#333"/>
    <path id="Path_72" data-name="Path 72" d="M1111.364,483.183s-7.131.852-8.061,3.874c-.415,1.347-11.5,31.824-9.564,35.855.433.9,7.967,2.125,10,.157s-7.9-6.125-6.842-10.109,7.376-23.887,8.392-24.871S1111.364,483.183,1111.364,483.183Z"/>
    <path id="Path_73" data-name="Path 73" d="M1103.785,520.069s.968,2.015-9.046,2.858-14.014.78-14.014.78l-6.015.906s-5.015.922-5.047,2.921,1.937,4.031,3.921,5.062,28.012-.56,29.012-.544-22.421,26.651-22.421,26.651,6.984,1.11,9.015-.859,24.452-28.619,24.452-28.619l4.047-2.937h0a2.774,2.774,0,0,0-1.5-4.228,17.678,17.678,0,0,0-4.425-.866A53.836,53.836,0,0,1,1103.785,520.069Z" fill="#999"/>
    <path id="Path_74" data-name="Path 74" d="M1113.169,525.969a4.051,4.051,0,0,0-.734-.764,6.059,6.059,0,0,0-4.016-1.063c-1.3-.02-1.713.973.286,1,1.836.029,2.6.789,2.92,1.376-.968.342-1.733.6-1.951.639-5.015.922-30.043,2.529-32.043,2.5-3-.047-3.984-1.063-3.984-1.063-2.649-.647-1.61,2.483.953,3.015,3.364.7,9.382.549,17,.267a70.144,70.144,0,0,1,11,.173L1080.175,558.7s3,.047,6.766.1,3.537-2.364,3.537-2.364-4.288,1.356-4.25-1.03,16.306-19.36,20.368-23.3,11.093-5.826,11.093-5.826l.031-2S1115.348,525.178,1113.169,525.969Z" fill="#333"/>
    <path id="Path_75" data-name="Path 75" d="M324.417,473.075s3.991-.846,2.924,4.47-3.273,17.784-3.273,17.784l-4.249-1.567Z" fill="#211f1e"/>
    <path id="Path_76" data-name="Path 76" d="M329.6,461.912a3.7,3.7,0,0,1,1.953,3.031c-.048,3-1.189,11.982-1.189,11.982l-3.3,18.951-1-.016,2.757-16.358s1.111-6.625,1.65-9.576C331.57,463.943,329.6,461.912,329.6,461.912Z" fill="#211f1e"/>
    <path id="Path_77" data-name="Path 77" d="M546.432,414.819,554,436.93l3.234.051-7.9-22.679Z"/>
    <path id="Path_78" data-name="Path 78" d="M528.185,418.063c-.011,0-.021.007-.032.009l6.352,18.552,3.234.051-6.664-19.126Z"/>
    <path id="Path_79" data-name="Path 79" d="M576.9,409.4l9.6,28.038,3.234.051-9.964-28.6Z"/>
    <path id="Path_80" data-name="Path 80" d="M564.712,411.569l8.788,25.668,3.234.051L567.6,411.056Z"/>
    <path id="Path_81" data-name="Path 81" d="M570.805,410.485,580,437.338l3.234.051-9.551-27.415Z"/>
    <path id="Path_82" data-name="Path 82" d="M603.246,434.832l-9.636-26.616a2.118,2.118,0,0,0-2.363-1.365l-2.162.384L599.5,437.644l1.723.027A2.118,2.118,0,0,0,603.246,434.832Z"/>
    <path id="Path_83" data-name="Path 83" d="M552.525,413.735l7.977,23.3,3.234.051-8.314-23.863Z"/>
    <path id="Path_84" data-name="Path 84" d="M534.245,416.985,541,436.726l3.234.051-7.076-20.31Z"/>
    <path id="Path_85" data-name="Path 85" d="M540.339,415.9l7.165,20.926,3.234.051-7.489-21.494Z"/>
    <path id="Path_86" data-name="Path 86" d="M558.619,412.652,567,437.134l3.234.051-8.726-25.047Z"/>
    <path id="Path_87" data-name="Path 87" d="M582.992,408.319,593,437.542l3.234.051L585.855,407.81Z"/>
    <path id="Path_88" data-name="Path 88" d="M1080.558,537.332l-11.1-.175a1.949,1.949,0,0,0-1.979,1.919l-.07,4.443a1.949,1.949,0,0,0,1.918,1.979l8.305.131a1.952,1.952,0,0,0,1.665-.887l2.862-4.4A1.949,1.949,0,0,0,1080.558,537.332Z" fill="#666"/>
    <path id="Path_89" data-name="Path 89" d="M1082.082,535.855l-11.1-.174a1.949,1.949,0,0,0-1.98,1.918l-.07,4.443a1.949,1.949,0,0,0,1.919,1.98l8.305.13a1.947,1.947,0,0,0,1.664-.886l2.862-4.4A1.949,1.949,0,0,0,1082.082,535.855Z" fill="#fc6"/>
    <circle id="Ellipse_41" data-name="Ellipse 41" cx="3.282" cy="3.282" r="3.282" transform="translate(651.97 469.624)" fill="#999"/>
    <path id="Path_90" data-name="Path 90" d="M854.727,449.817a1.022,1.022,0,0,1,1.051-1.106l24.764.807a1.022,1.022,0,0,1,.58.2l10.184,8.665a1.021,1.021,0,0,1,.407.833l0,.31a.941.941,0,0,1-.253.658,2.37,2.37,0,0,1-1.766.48l-24-.376a3.1,3.1,0,0,1-1.984-1.032c-.448-.463-7.5-8.092-8.982-9.443" fill="#999"/>
    <g id="Path_91" data-name="Path 91" fill="#fff" opacity="0.3">
      <path d="M 889.8428955078125 460.0836486816406 C 888.2178955078125 460.0836486816406 883.1226806640625 459.9808349609375 878.1951904296875 459.8814086914062 C 873.2237548828125 459.7810668945312 868.0830688476562 459.6773376464844 866.4219360351562 459.6773376464844 C 865.9660034179688 459.6773376464844 865.8689575195312 459.6849670410156 865.813720703125 459.692138671875 C 865.8056640625 459.6931762695312 865.79638671875 459.6936950683594 865.7860107421875 459.6936950683594 C 865.4146728515625 459.6936950683594 864.6473388671875 459.1676330566406 864.2329711914062 458.8032531738281 L 863.5308227539062 458.0603637695312 C 863.8327026367188 458.2997436523438 864.22119140625 458.578369140625 864.6808471679688 458.8453369140625 C 865.8509521484375 459.5239562988281 867.100341796875 459.6460266113281 867.1529541015625 459.6509094238281 L 867.1734619140625 459.6528015136719 L 867.194091796875 459.6529846191406 C 867.4150390625 459.6551818847656 889.3067016601562 459.8700256347656 890.3950805664062 459.8720092773438 C 890.5962524414062 459.8720092773438 890.77880859375 459.8502502441406 890.9424438476562 459.8069763183594 C 890.9074096679688 459.8374938964844 890.8772583007812 459.8654479980469 890.851318359375 459.8894958496094 C 890.7510375976562 459.9824829101562 890.709228515625 460.0212707519531 890.3140869140625 460.0769348144531 C 890.29443359375 460.0784912109375 890.2017211914062 460.0836486816406 889.8428955078125 460.0836486816406 Z" stroke="none"/>
      <path d="M 855.4409790039062 448.8720092773438 L 863.1749877929688 457.0780029296875 C 863.1749877929688 457.0780029296875 863.843994140625 457.781005859375 864.9320068359375 458.4129943847656 C 866.02001953125 459.0440063476562 867.198974609375 459.1530151367188 867.198974609375 459.1530151367188 C 867.198974609375 459.1530151367188 889.2969970703125 459.3699951171875 890.39599609375 459.3720092773438 C 890.3966674804688 459.3720092773438 890.3973388671875 459.3720092773438 890.3980102539062 459.3720092773438 C 891.493896484375 459.3720092773438 891.3820190429688 458.5719909667969 891.3820190429688 458.5719909667969 L 891.5540161132812 459.031005859375 L 891.5469970703125 459.4590148925781 C 891.5469970703125 459.4590148925781 891.5750122070312 459.9339904785156 891.3159790039062 460.14599609375 C 891.0570068359375 460.3569946289062 891.06298828125 460.4769897460938 890.3770141601562 460.572998046875 C 889.7427368164062 460.6605529785156 870.0250854492188 460.1773376464844 866.4219360351562 460.1773376464844 C 866.1220092773438 460.1773376464844 865.934326171875 460.1806945800781 865.8779907226562 460.18798828125 C 865.144775390625 460.2834167480469 863.8849487304688 459.1629943847656 863.885009765625 459.1629943847656 L 855.02099609375 449.7850036621094 L 855.0289916992188 449.2879943847656 L 855.4409790039062 448.8720092773438 Z" stroke="none" fill="#000"/>
    </g>
    <g id="Group_5" data-name="Group 5">
      <path id="Path_92" data-name="Path 92" d="M881.283,450.619l-22.957-.586.458.474,23.062.589Z" fill="#666"/>
      <path id="Path_93" data-name="Path 93" d="M884.728,453.536l-.492-.416-23.509-.6.573.593,0-.174Z" fill="#666"/>
      <path id="Path_94" data-name="Path 94" d="M882.662,451.787l-23.215-.593.469.485,23.322.6Z" fill="#666"/>
      <path id="Path_95" data-name="Path 95" d="M880.1,449.618l-22.869-.718.226.233,22.758.581Z" fill="#666"/>
      <path id="Path_96" data-name="Path 96" d="M880.483,449.942l-22.808-.582.215.222,22.857.583Z" fill="#666"/>
      <path id="Path_97" data-name="Path 97" d="M885.872,454.5l-23.814-.608.782.81,23.994.612Z" fill="#666"/>
      <path id="Path_98" data-name="Path 98" d="M887.99,456.3l-24.209-.618.691.715,24.368.622Z" fill="#666"/>
      <path id="Path_99" data-name="Path 99" d="M890.621,458.525,890,458v.019l-24.564-.627.726.752Z" fill="#666"/>
    </g>
    <path id="Path_100" data-name="Path 100" d="M673.654,461.311l-24.858-1.39a2.123,2.123,0,0,0-2.157,2.089l-.011.754a2.122,2.122,0,0,0,2.089,2.156l.92.015a2.5,2.5,0,1,0,2.251.035l22.58.354a2.123,2.123,0,0,0,2.156-2.089l.012-.754C676.654,461.309,674.826,461.33,673.654,461.311Z" fill="url(#linear-gradient-38)"/>
    <rect id="Rectangle_5" data-name="Rectangle 5" height="3.673" transform="translate(681.636 472.161) rotate(0.899)" fill="#333"/>
    <circle id="Ellipse_42" data-name="Ellipse 42" cx="2.929" cy="2.929" r="2.929" transform="translate(652.358 469.978)" fill="url(#linear-gradient-39)"/>
    <rect id="Rectangle_6" data-name="Rectangle 6" width="1.258" height="4.66" rx="0.217" transform="translate(654.66 470.567) rotate(0.899)" fill="#333" opacity="0.5"/>
    <path id="Path_101" data-name="Path 101" d="M675.25,462.437l-.707,1.36a.856.856,0,0,1-.8.465c-3.547-.155-23.255-1.012-24.875-1.038a1.77,1.77,0,0,1-1.775-1.809s-.048,1.2-.035,1.7a1.3,1.3,0,0,0,.271.751,2.05,2.05,0,0,0,1.478.581,3.134,3.134,0,0,0,.841.007c.962-.107.448.688-.057.942a2.1,2.1,0,0,0-1.033,1.539,2.2,2.2,0,0,0,4.371.553,2.129,2.129,0,0,0-1.063-2.1c-.341-.16-1.085-.569-.616-.84a.9.9,0,0,1,.679-.12c1.107.108,16.016.742,22.972.43,1.368-.061,1.426-2.443,1.426-2.443S675.592,461.779,675.25,462.437Z" fill="#666"/>
    <line id="Line_1" data-name="Line 1" x1="1.271" y2="5.697" transform="translate(648.045 458.488)" fill="#666"/>
    <path id="Path_102" data-name="Path 102" d="M765.219,396.01" fill="#900"/>
    <path id="Path_103" data-name="Path 103" d="M842.093,442.17s3.865-2.332,4.826-2.317,1.444,1.238,1.444,1.238l1.136,6.894-3.437-2.78.36-1.773-3.5,1.183s-2.945,2.7-2.478.838C841.086,442.915,842.093,442.17,842.093,442.17Z" fill="#666"/>
    <path id="Path_104" data-name="Path 104" d="M842.527,442.506c1.206-.578,3.526-2.059,4.189-2.049s1.081.315,1.148.764,1.2,6.012,1.2,6.012-1.716-5.026-2.381-4.912c-.6.1-2.887.911-3.665,1.2s-1.935,1.9-1.935,1.9S841.5,442.849,842.527,442.506Z" fill="#ccc" opacity="0.5"/>
    <path id="Path_105" data-name="Path 105" d="M339.523,497.628c-3.017-.047-15.016-1.733-15.525-1.8l.14-.99c.124.017,12.446,1.748,15.4,1.794,2.176.035,4.786-5.052,5.644-7.093l5.637-40.709.99.137-5.679,40.9C345.8,490.66,342.787,497.68,339.523,497.628Z"/>
    <path id="Path_106" data-name="Path 106" d="M589.343,552.5l338.851,3.819s-4.172,10.935-6.188,11.9-3.031,1.953-7.03,1.89-323.023-1.07-323.023-1.07-1.591,1.341-4.177-6.883S586.482,551.954,589.343,552.5Z" fill="url(#linear-gradient-40)"/>
    <path id="Path_107" data-name="Path 107" d="M593.22,552.06s-5.813,3.576-2.438,3.8,328.382,2.32,328.382,2.32,7.818.623,9.03-1.858-2.063,3.968-4.125,7.936c-1.663,3.2-1.31,3.4-6.078,4.9-6.03,1.906,6.125-7.9,1.126-7.983s-327.863-3.738-327.863-3.738-.738,7.707,2.746,8.636c11.951,3.188,3.952,3.062-2.047,2.968-2.9-.045-1.968-2.031-2.937-4.046,0,0-2.9-6.337-2.811-12.046C586.22,551.95,589.519,552.666,593.22,552.06Z" fill="#666" style="mix-blend-mode: multiply;isolation: isolate"/>
  </g>
</svg>
