<svg xmlns="http://www.w3.org/2000/svg" width="253" height="157" viewBox="0 0 253 157">
  <g id="RAce_button" data-name="RAce button" transform="translate(3 3)">
    <g id="Rectangle_43" data-name="Rectangle 43" transform="translate(5 31)" fill="#fff" stroke="#000" stroke-linejoin="round" stroke-width="10">
      <rect width="230" height="100" stroke="none"/>
      <rect x="5" y="5" width="220" height="90" fill="none"/>
    </g>
    <rect id="Rectangle_45" data-name="Rectangle 45" width="20" height="20" transform="translate(65 71)"/>
    <rect id="Rectangle_54" data-name="Rectangle 54" width="20" height="20" transform="translate(45 51)"/>
    <rect id="Rectangle_74" data-name="Rectangle 74" width="11" height="20" transform="translate(14 51)"/>
    <rect id="Rectangle_75" data-name="Rectangle 75" width="11" height="20" transform="translate(14 91)"/>
    <rect id="Rectangle_55" data-name="Rectangle 55" width="20" height="20" transform="translate(45 91)"/>
    <rect id="Rectangle_56" data-name="Rectangle 56" width="20" height="20" transform="translate(85 91)"/>
    <rect id="Rectangle_57" data-name="Rectangle 57" width="20" height="20" transform="translate(125 91)"/>
    <rect id="Rectangle_58" data-name="Rectangle 58" width="20" height="20" transform="translate(165 91)"/>
    <rect id="Rectangle_68" data-name="Rectangle 68" width="20" height="20" transform="translate(205 91)"/>
    <rect id="Rectangle_69" data-name="Rectangle 69" width="20" height="20" transform="translate(205 51)"/>
    <rect id="Rectangle_59" data-name="Rectangle 59" width="20" height="20" transform="translate(165 51)"/>
    <rect id="Rectangle_60" data-name="Rectangle 60" width="20" height="20" transform="translate(125 51)"/>
    <rect id="Rectangle_61" data-name="Rectangle 61" width="20" height="20" transform="translate(85 51)"/>
    <rect id="Rectangle_46" data-name="Rectangle 46" width="20" height="20" transform="translate(25 71)"/>
    <rect id="Rectangle_47" data-name="Rectangle 47" width="20" height="20" transform="translate(25 71)"/>
    <rect id="Rectangle_62" data-name="Rectangle 62" width="20" height="10" transform="translate(25 111)"/>
    <rect id="Rectangle_63" data-name="Rectangle 63" width="20" height="10" transform="translate(65 111)"/>
    <rect id="Rectangle_64" data-name="Rectangle 64" width="20" height="10" transform="translate(65 111)"/>
    <rect id="Rectangle_65" data-name="Rectangle 65" width="20" height="10" transform="translate(105 111)"/>
    <rect id="Rectangle_66" data-name="Rectangle 66" width="20" height="10" transform="translate(145 111)"/>
    <rect id="Rectangle_67" data-name="Rectangle 67" width="20" height="10" transform="translate(185 111)"/>
    <rect id="Rectangle_48" data-name="Rectangle 48" width="20" height="20" transform="translate(105 71)"/>
    <rect id="Rectangle_49" data-name="Rectangle 49" width="20" height="20" transform="translate(105 71)"/>
    <rect id="Rectangle_50" data-name="Rectangle 50" width="20" height="20" transform="translate(145 71)"/>
    <rect id="Rectangle_51" data-name="Rectangle 51" width="20" height="20" transform="translate(185 71)"/>
    <rect id="Rectangle_52" data-name="Rectangle 52" width="20" height="11" transform="translate(185 40)"/>
    <rect id="Rectangle_70" data-name="Rectangle 70" width="20" height="11" transform="translate(145 40)"/>
    <rect id="Rectangle_71" data-name="Rectangle 71" width="20" height="11" transform="translate(105 40)"/>
    <rect id="Rectangle_72" data-name="Rectangle 72" width="20" height="11" transform="translate(65 40)"/>
    <rect id="Rectangle_73" data-name="Rectangle 73" width="20" height="11" transform="translate(25 40)"/>
    <text id="Race_" data-name="Race!" transform="translate(0 110)" stroke="#000" stroke-width="3" font-size="120" font-family="BrushScriptMT, Brush Script MT"><tspan x="0" y="0">Race!</tspan></text>
    <text id="Race_2" data-name="Race!" transform="translate(0 107)" fill="#c60808" stroke="#c60808" stroke-width="3" font-size="120" font-family="BrushScriptMT, Brush Script MT"><tspan x="0" y="0">Race!</tspan></text>
  </g>
</svg>
